<?xml version="1.0" standalone="no"?>
<!DOCTYPE svg PUBLIC "-//W3C//DTD SVG 20010904//EN"
 "http://www.w3.org/TR/2001/REC-SVG-20010904/DTD/svg10.dtd">
<svg version="1.0" xmlns="http://www.w3.org/2000/svg"
 width="2816.000000pt" height="1536.000000pt" viewBox="0 0 2816.000000 1536.000000"
 preserveAspectRatio="xMidYMid meet">

<g transform="translate(0.000000,1536.000000) scale(0.100000,-0.100000)"
fill="currentColor" stroke="none">
<path d="M15458 10983 c-211 -283 -408 -555 -503 -693 -44 -63 -159 -223 -255
-355 -97 -132 -203 -278 -236 -325 -72 -101 -339 -471 -693 -962 -85 -117
-184 -256 -221 -308 -36 -52 -102 -144 -146 -205 -44 -60 -125 -172 -180 -249
-54 -76 -213 -296 -352 -489 l-252 -352 2 -330 3 -330 1132 -3 1133 -2 2 -938
3 -937 30 3 c58 6 381 91 485 127 329 115 670 307 968 544 130 103 347 318
466 461 248 297 482 750 581 1125 35 135 72 307 80 380 4 33 9 69 11 79 2 10
9 87 15 170 22 290 -9 649 -82 937 -28 112 -106 351 -146 449 -216 523 -594
1007 -1027 1317 -96 68 -247 163 -260 163 -3 0 -6 -196 -6 -435 l0 -435 78
-83 c240 -253 355 -411 472 -650 137 -280 211 -563 241 -916 25 -301 -37 -704
-155 -1005 -149 -380 -381 -709 -676 -959 -87 -73 -323 -237 -342 -237 -6 0
-6 367 1 773 l1 67 208 0 208 0 106 218 c131 267 173 361 208 460 16 46 17 54
4 59 -8 3 -176 3 -374 1 l-358 -5 -4 26 c-2 14 -3 932 -2 2039 0 1106 -3 2012
-6 2012 -4 0 -77 -93 -162 -207z m-572 -3860 c-8 -8 -1316 -8 -1316 0 0 5 13
25 29 45 28 36 158 218 297 417 39 55 104 147 145 203 41 57 99 139 129 182
30 43 88 125 128 182 40 56 149 209 243 338 93 129 193 269 221 310 28 41 67
97 87 125 l36 49 3 -923 c1 -508 0 -926 -2 -928z"/>
<path d="M12250 10738 c-134 -7 -320 -43 -428 -84 -324 -122 -525 -382 -589
-763 -13 -78 -17 -225 -23 -766 -5 -405 -13 -696 -19 -735 -13 -78 -45 -178
-77 -241 -27 -54 -106 -128 -167 -157 -57 -27 -155 -52 -203 -52 -22 0 -56 -3
-76 -6 l-38 -7 0 -327 0 -327 38 -7 c20 -3 55 -6 78 -6 84 0 232 -61 303 -125
46 -42 96 -132 116 -211 34 -136 38 -209 40 -804 3 -631 9 -755 50 -916 132
-523 489 -742 1213 -744 l152 0 0 364 0 364 -187 4 c-159 4 -198 8 -255 27
-87 28 -146 74 -182 140 -60 111 -59 99 -66 801 -7 687 -8 702 -62 905 -62
235 -197 416 -382 511 l-49 26 76 48 c221 142 327 314 389 634 20 104 22 152
27 771 l7 660 29 75 c37 95 96 157 181 190 53 21 81 24 264 29 l205 6 0 365 0
365 -120 0 c-66 0 -176 -3 -245 -7z"/>
<path d="M13063 10742 l-43 -3 0 -365 0 -364 637 2 636 3 86 118 c47 65 161
220 252 345 92 125 165 228 164 230 -2 2 -52 10 -111 19 -89 12 -244 15 -844
16 -404 1 -754 1 -777 -1z"/>
<path d="M13029 5183 c-1 -5 -2 -169 -3 -365 l-1 -358 733 0 732 0 0 365 0
365 -730 0 c-401 0 -731 -3 -731 -7z"/>
</g>
</svg>
